<svg width="50" height="50" viewBox="0 0 50 50" fill="none" xmlns="http://www.w3.org/2000/svg">
<g clip-path="url(#clip0_135:65)">
<path d="M3.12635 3.40244C-0.802815 7.48369 0.00135094 11.8191 0.00135094 24.9899C0.00135094 35.9274 -1.90698 46.892 8.08051 49.4733C11.1993 50.2754 38.8326 50.2754 41.9472 49.4691C46.1055 48.3962 49.4888 45.0233 49.9513 39.142C50.0159 38.3212 50.0159 11.6733 49.9492 10.8358C49.4576 4.57119 45.6013 0.960778 40.5201 0.229528C39.3555 0.0607778 39.1222 0.0107778 33.1472 0.000361129C11.9534 0.0107778 7.3076 -0.932972 3.12635 3.40244V3.40244Z" fill="url(#paint0_linear_135:65)"/>
<path d="M24.9961 6.5393C17.4315 6.5393 10.2482 5.86638 7.50443 12.9081C6.3711 15.8164 6.53568 19.5935 6.53568 25.0018C6.53568 29.7476 6.3836 34.2081 7.50443 37.0935C10.2419 44.1393 17.4836 43.4643 24.9919 43.4643C32.2357 43.4643 39.7044 44.2185 42.4815 37.0935C43.6169 34.156 43.4503 30.4351 43.4503 25.0018C43.4503 17.7893 43.8482 13.1331 40.3503 9.63722C36.8086 6.09555 32.019 6.5393 24.9878 6.5393H24.9961ZM23.3419 9.86638C39.1211 9.84138 41.1294 8.08722 40.0211 32.456C39.6274 41.0747 33.0649 40.1289 24.9982 40.1289C10.2898 40.1289 9.86693 39.7081 9.86693 24.9935C9.86693 10.1081 11.0336 9.87472 23.3419 9.86222V9.86638ZM34.8503 12.931C33.6274 12.931 32.6357 13.9226 32.6357 15.1456C32.6357 16.3685 33.6274 17.3601 34.8503 17.3601C36.0732 17.3601 37.0649 16.3685 37.0649 15.1456C37.0649 13.9226 36.0732 12.931 34.8503 12.931V12.931ZM24.9961 15.5206C19.7607 15.5206 15.5169 19.7664 15.5169 25.0018C15.5169 30.2372 19.7607 34.481 24.9961 34.481C30.2315 34.481 34.4732 30.2372 34.4732 25.0018C34.4732 19.7664 30.2315 15.5206 24.9961 15.5206V15.5206ZM24.9961 18.8476C33.1315 18.8476 33.1419 31.156 24.9961 31.156C16.8628 31.156 16.8503 18.8476 24.9961 18.8476Z" fill="white"/>
</g>
<defs>
<linearGradient id="paint0_linear_135:65" x1="3.22223" y1="46.8068" x2="49.6919" y2="6.58782" gradientUnits="userSpaceOnUse">
<stop stop-color="#FFDD55"/>
<stop offset="0.5" stop-color="#FF543E"/>
<stop offset="1" stop-color="#C837AB"/>
</linearGradient>
<clipPath id="clip0_135:65">
<rect width="50" height="50" fill="white"/>
</clipPath>
</defs>
</svg>
