<svg width="50" height="50" viewBox="0 0 50 50" fill="none" xmlns="http://www.w3.org/2000/svg">
<g clip-path="url(#clip0_135:85)">
<rect x="0.390625" width="50" height="50" rx="8" fill="#7AD06D"/>
<path d="M24.5085 5.97906C14.4501 6.45798 6.51254 14.8347 6.54306 24.9046C6.55235 27.9716 7.29278 30.8665 8.59894 33.4243L6.59352 43.1589C6.48504 43.6854 6.95995 44.1465 7.48306 44.0226L17.0218 41.7627C19.4724 42.9834 22.225 43.6885 25.1382 43.733C35.4189 43.89 43.9912 35.7269 44.3116 25.45C44.6551 14.4339 35.5632 5.45258 24.5085 5.97906ZM35.8903 35.3044C33.0968 38.0979 29.3826 39.6363 25.432 39.6363C23.1188 39.6363 20.9042 39.1173 18.8494 38.0938L17.521 37.4321L11.6728 38.8177L12.9038 32.8418L12.2494 31.5603C11.1827 29.4712 10.6418 27.2122 10.6418 24.8461C10.6418 20.8954 12.1802 17.1814 14.9737 14.3878C17.7423 11.6192 21.517 10.0558 25.4323 10.0558C29.3829 10.0559 33.0969 11.5943 35.8904 14.3877C38.6838 17.1812 40.2223 20.8953 40.2224 24.8458C40.2223 28.7612 38.6588 32.536 35.8903 35.3044Z" fill="white"/>
<path d="M34.5995 28.9425L30.9407 27.892C30.4597 27.7539 29.9417 27.8903 29.5912 28.2475L28.6964 29.159C28.3192 29.5434 27.7467 29.6669 27.2474 29.4649C25.5166 28.7645 21.8757 25.5273 20.9459 23.9081C20.6777 23.441 20.722 22.857 21.0514 22.4309L21.8325 21.4203C22.1386 21.0243 22.2032 20.4926 22.0008 20.0349L20.4614 16.5533C20.0927 15.7194 19.0271 15.4767 18.3309 16.0655C17.3098 16.9291 16.0982 18.2416 15.9509 19.6956C15.6912 22.2591 16.7906 25.4906 20.948 29.3708C25.7509 33.8536 29.5971 34.4458 32.1013 33.8392C33.5217 33.4952 34.6568 32.1159 35.3732 30.9867C35.8616 30.2167 35.4759 29.1942 34.5995 28.9425Z" fill="white"/>
</g>
<defs>
<clipPath id="clip0_135:85">
<rect width="50" height="50" fill="white"/>
</clipPath>
</defs>
</svg>
