<svg width="50" height="50" viewBox="0 0 50 50" fill="none" xmlns="http://www.w3.org/2000/svg">
<g clip-path="url(#clip0_135:71)">
<rect width="50" height="50" rx="7" fill="white"/>
<path d="M43.2629 0H6.73858C3.01758 0 0.000976562 3.01648 0.000976562 6.7376V43.2622C0.000976562 46.9833 3.01745 49.9998 6.73858 49.9998H24.7522L24.7829 32.1325H20.141C19.5378 32.1325 19.0481 31.6448 19.0458 31.0415L19.0236 25.2822C19.0212 24.6756 19.5123 24.1827 20.1189 24.1827H24.7523V18.6177C24.7523 12.1596 28.6965 8.64311 34.4576 8.64311H39.185C39.7898 8.64311 40.2803 9.13346 40.2803 9.73842V14.5947C40.2803 15.1994 39.7902 15.6897 39.1856 15.69L36.2845 15.6914C33.1514 15.6914 32.5447 17.1802 32.5447 19.3651V24.1828H39.4291C40.0851 24.1828 40.594 24.7556 40.5167 25.4071L39.8341 31.1664C39.7688 31.7175 39.3014 32.1328 38.7465 32.1328H32.5754L32.5447 50H43.2631C46.9841 50 50.0006 46.9835 50.0006 43.2625V6.7376C50.0005 3.01648 46.984 0 43.2629 0Z" fill="#475993"/>
</g>
<defs>
<clipPath id="clip0_135:71">
<rect width="50" height="50" fill="white"/>
</clipPath>
</defs>
</svg>
